#N canvas 1054 48 1467 852 10;
#X msg 288 179 symbol I;
#X msg 359 178 symbol ii;
#X msg 435 177 symbol iii;
#X msg 521 177 symbol IV;
#X obj 1134 571 s root;
#X msg 598 177 symbol V;
#X msg 666 177 symbol vi;
#X msg 744 178 symbol vii;
#X obj 222 285 hsl 100 15 35 120 0 0 empty empty empty -2 -8 0 10 -262144
-1 -1 1514 1;
#N canvas 478 55 582 300 select 1;
#N canvas 726 655 1175 621 I 0;
#X obj 302 277 + 4;
#X obj 481 279 + 7;
#X obj 43 460 *~;
#X obj 44 536 dac~;
#X obj 31 370 mtof;
#X obj 31 392 osc~;
#X obj 79 400 vline~;
#X msg 79 378 1 10 \, 0.7 1000 10 \, 0 1000 1010;
#X obj 314 464 *~;
#X obj 315 540 dac~;
#X obj 302 374 mtof;
#X obj 302 396 osc~;
#X obj 350 404 vline~;
#X msg 350 382 1 10 \, 0.7 1000 10 \, 0 1000 1010;
#X obj 584 465 *~;
#X obj 585 541 dac~;
#X obj 572 375 mtof;
#X obj 572 397 osc~;
#X obj 620 405 vline~;
#X msg 620 383 1 10 \, 0.7 1000 10 \, 0 1000 1010;
#X floatatom 302 299 5 0 0 0 - - -, f 5;
#X floatatom 481 301 5 0 0 0 - - -, f 5;
#X obj 863 472 *~;
#X obj 864 548 dac~;
#X obj 851 382 mtof;
#X obj 851 404 osc~;
#X obj 899 412 vline~;
#X msg 899 390 1 10 \, 0.7 1000 10 \, 0 1000 1010;
#X obj 667 276 + 12;
#X floatatom 667 298 5 0 0 0 - - -, f 5;
#X obj 324 124 inlet;
#X floatatom 452 141 5 0 0 0 - - -, f 5;
#X obj 452 107 r root;
#X obj 896 363 tabwrite arparp;
#X obj 623 361 tabwrite arparp;
#X obj 410 352 tabwrite arparp;
#X obj 130 349 tabwrite arparp;
#X floatatom 162 329 5 0 0 0 - - -, f 5;
#X obj 242 330 loadbang;
#X floatatom 393 329 5 0 0 0 - - -, f 5;
#X obj 480 330 loadbang;
#X floatatom 611 333 5 0 0 0 - - -, f 5;
#X obj 688 332 loadbang;
#X floatatom 882 339 5 0 0 0 - - -, f 5;
#X obj 964 338 loadbang;
#X msg 209 326 0;
#X msg 445 329 1;
#X msg 654 332 2;
#X msg 928 338 3;
#X connect 0 0 20 0;
#X connect 1 0 21 0;
#X connect 2 0 3 0;
#X connect 2 0 3 1;
#X connect 4 0 5 0;
#X connect 5 0 2 0;
#X connect 6 0 2 1;
#X connect 7 0 6 0;
#X connect 8 0 9 0;
#X connect 8 0 9 1;
#X connect 10 0 11 0;
#X connect 11 0 8 0;
#X connect 12 0 8 1;
#X connect 13 0 12 0;
#X connect 14 0 15 0;
#X connect 14 0 15 1;
#X connect 16 0 17 0;
#X connect 17 0 14 0;
#X connect 18 0 14 1;
#X connect 19 0 18 0;
#X connect 20 0 10 0;
#X connect 20 0 35 0;
#X connect 21 0 16 0;
#X connect 21 0 34 0;
#X connect 22 0 23 0;
#X connect 22 0 23 1;
#X connect 24 0 25 0;
#X connect 25 0 22 0;
#X connect 26 0 22 1;
#X connect 27 0 26 0;
#X connect 28 0 29 0;
#X connect 29 0 24 0;
#X connect 29 0 33 0;
#X connect 30 0 7 0;
#X connect 30 0 13 0;
#X connect 30 0 19 0;
#X connect 30 0 27 0;
#X connect 30 0 31 0;
#X connect 31 0 4 0;
#X connect 31 0 0 0;
#X connect 31 0 1 0;
#X connect 31 0 28 0;
#X connect 31 0 36 0;
#X connect 32 0 31 0;
#X connect 37 0 36 1;
#X connect 38 0 45 0;
#X connect 39 0 35 1;
#X connect 40 0 46 0;
#X connect 41 0 34 1;
#X connect 42 0 47 0;
#X connect 43 0 33 1;
#X connect 44 0 48 0;
#X connect 45 0 37 0;
#X connect 46 0 39 0;
#X connect 47 0 41 0;
#X connect 48 0 43 0;
#X restore 127 129 pd I;
#N canvas 104 50 1137 550 ii 0;
#X obj 481 279 + 7;
#X obj 43 460 *~;
#X obj 44 536 dac~;
#X obj 31 370 mtof;
#X obj 31 392 osc~;
#X obj 79 400 vline~;
#X msg 79 378 1 10 \, 0.7 1000 10 \, 0 1000 1010;
#X obj 314 464 *~;
#X obj 315 540 dac~;
#X obj 302 374 mtof;
#X obj 302 396 osc~;
#X obj 350 404 vline~;
#X msg 350 382 1 10 \, 0.7 1000 10 \, 0 1000 1010;
#X obj 584 465 *~;
#X obj 585 541 dac~;
#X obj 572 375 mtof;
#X obj 572 397 osc~;
#X obj 620 405 vline~;
#X msg 620 383 1 10 \, 0.7 1000 10 \, 0 1000 1010;
#X floatatom 302 299 5 0 0 0 - - -, f 5;
#X floatatom 481 301 5 0 0 0 - - -, f 5;
#X obj 863 472 *~;
#X obj 864 548 dac~;
#X obj 851 382 mtof;
#X obj 851 404 osc~;
#X obj 899 412 vline~;
#X msg 899 390 1 10 \, 0.7 1000 10 \, 0 1000 1010;
#X obj 667 276 + 12;
#X floatatom 667 298 5 0 0 0 - - -, f 5;
#X obj 324 124 inlet;
#X floatatom 516 147 5 0 0 0 - - -, f 5;
#X obj 418 130 + 2;
#X obj 302 277 + 3;
#X obj 439 93 r root;
#X obj 609 192 tabwrite arparp;
#X obj 609 165 tabwrite arparp;
#X obj 611 128 tabwrite arparp;
#X obj 183 336 tabwrite arparp;
#X floatatom 327 336 5 0 0 0 - - -, f 5;
#X obj 414 335 loadbang;
#X floatatom 757 121 5 0 0 0 - - -, f 5;
#X obj 844 120 loadbang;
#X floatatom 755 152 5 0 0 0 - - -, f 5;
#X obj 842 151 loadbang;
#X floatatom 756 180 5 0 0 0 - - -, f 5;
#X obj 843 179 loadbang;
#X msg 373 335 0;
#X msg 804 118 1;
#X msg 802 149 2;
#X msg 803 177 3;
#X connect 0 0 20 0;
#X connect 1 0 2 0;
#X connect 1 0 2 1;
#X connect 3 0 4 0;
#X connect 4 0 1 0;
#X connect 5 0 1 1;
#X connect 6 0 5 0;
#X connect 7 0 8 0;
#X connect 7 0 8 1;
#X connect 9 0 10 0;
#X connect 10 0 7 0;
#X connect 11 0 7 1;
#X connect 12 0 11 0;
#X connect 13 0 14 0;
#X connect 13 0 14 1;
#X connect 15 0 16 0;
#X connect 16 0 13 0;
#X connect 17 0 13 1;
#X connect 18 0 17 0;
#X connect 19 0 9 0;
#X connect 19 0 36 0;
#X connect 20 0 15 0;
#X connect 20 0 35 0;
#X connect 21 0 22 0;
#X connect 21 0 22 1;
#X connect 23 0 24 0;
#X connect 24 0 21 0;
#X connect 25 0 21 1;
#X connect 26 0 25 0;
#X connect 27 0 28 0;
#X connect 28 0 23 0;
#X connect 28 0 34 0;
#X connect 29 0 6 0;
#X connect 29 0 12 0;
#X connect 29 0 18 0;
#X connect 29 0 26 0;
#X connect 29 0 31 0;
#X connect 30 0 3 0;
#X connect 30 0 0 0;
#X connect 30 0 27 0;
#X connect 30 0 32 0;
#X connect 30 0 37 0;
#X connect 31 0 30 0;
#X connect 32 0 19 0;
#X connect 33 0 31 0;
#X connect 38 0 37 1;
#X connect 39 0 46 0;
#X connect 40 0 36 1;
#X connect 41 0 47 0;
#X connect 42 0 35 1;
#X connect 43 0 48 0;
#X connect 44 0 34 1;
#X connect 45 0 49 0;
#X connect 46 0 38 0;
#X connect 47 0 40 0;
#X connect 48 0 42 0;
#X connect 49 0 44 0;
#X restore 183 130 pd ii;
#N canvas 203 80 1139 606 iii 0;
#X obj 481 279 + 7;
#X obj 43 460 *~;
#X obj 44 536 dac~;
#X obj 31 370 mtof;
#X obj 31 392 osc~;
#X obj 79 400 vline~;
#X msg 79 378 1 10 \, 0.7 1000 10 \, 0 1000 1010;
#X obj 314 464 *~;
#X obj 315 540 dac~;
#X obj 302 374 mtof;
#X obj 302 396 osc~;
#X obj 350 404 vline~;
#X msg 350 382 1 10 \, 0.7 1000 10 \, 0 1000 1010;
#X obj 584 465 *~;
#X obj 585 541 dac~;
#X obj 572 375 mtof;
#X obj 572 397 osc~;
#X obj 620 405 vline~;
#X msg 620 383 1 10 \, 0.7 1000 10 \, 0 1000 1010;
#X floatatom 302 299 5 0 0 0 - - -, f 5;
#X floatatom 481 301 5 0 0 0 - - -, f 5;
#X obj 863 472 *~;
#X obj 864 548 dac~;
#X obj 851 382 mtof;
#X obj 851 404 osc~;
#X obj 899 412 vline~;
#X msg 899 390 1 10 \, 0.7 1000 10 \, 0 1000 1010;
#X obj 667 276 + 12;
#X floatatom 667 298 5 0 0 0 - - -, f 5;
#X obj 324 124 inlet;
#X floatatom 516 147 5 0 0 0 - - -, f 5;
#X obj 302 277 + 3;
#X obj 418 130 + 4;
#X obj 417 88 r root;
#X obj 621 192 tabwrite arparp;
#X obj 621 165 tabwrite arparp;
#X obj 623 128 tabwrite arparp;
#X obj 623 84 tabwrite arparp;
#X floatatom 767 84 5 0 0 0 - - -, f 5;
#X obj 854 83 loadbang;
#X floatatom 769 121 5 0 0 0 - - -, f 5;
#X obj 856 120 loadbang;
#X floatatom 767 152 5 0 0 0 - - -, f 5;
#X obj 854 151 loadbang;
#X floatatom 768 180 5 0 0 0 - - -, f 5;
#X obj 855 179 loadbang;
#X msg 813 83 0;
#X msg 816 118 1;
#X msg 814 149 2;
#X msg 815 177 3;
#X connect 0 0 20 0;
#X connect 1 0 2 0;
#X connect 1 0 2 1;
#X connect 3 0 4 0;
#X connect 4 0 1 0;
#X connect 5 0 1 1;
#X connect 6 0 5 0;
#X connect 7 0 8 0;
#X connect 7 0 8 1;
#X connect 9 0 10 0;
#X connect 10 0 7 0;
#X connect 11 0 7 1;
#X connect 12 0 11 0;
#X connect 13 0 14 0;
#X connect 13 0 14 1;
#X connect 15 0 16 0;
#X connect 16 0 13 0;
#X connect 17 0 13 1;
#X connect 18 0 17 0;
#X connect 19 0 9 0;
#X connect 19 0 36 0;
#X connect 20 0 15 0;
#X connect 20 0 35 0;
#X connect 21 0 22 0;
#X connect 21 0 22 1;
#X connect 23 0 24 0;
#X connect 24 0 21 0;
#X connect 25 0 21 1;
#X connect 26 0 25 0;
#X connect 27 0 28 0;
#X connect 28 0 23 0;
#X connect 28 0 34 0;
#X connect 29 0 6 0;
#X connect 29 0 12 0;
#X connect 29 0 18 0;
#X connect 29 0 26 0;
#X connect 29 0 32 0;
#X connect 30 0 3 0;
#X connect 30 0 0 0;
#X connect 30 0 27 0;
#X connect 30 0 31 0;
#X connect 30 0 37 0;
#X connect 31 0 19 0;
#X connect 32 0 30 0;
#X connect 33 0 32 0;
#X connect 38 0 37 1;
#X connect 39 0 46 0;
#X connect 40 0 36 1;
#X connect 41 0 47 0;
#X connect 42 0 35 1;
#X connect 43 0 48 0;
#X connect 44 0 34 1;
#X connect 45 0 49 0;
#X connect 46 0 38 0;
#X connect 47 0 40 0;
#X connect 48 0 42 0;
#X connect 49 0 44 0;
#X restore 239 129 pd iii;
#N canvas 139 50 1141 690 IV 0;
#X obj 481 279 + 7;
#X obj 43 460 *~;
#X obj 44 536 dac~;
#X obj 31 370 mtof;
#X obj 31 392 osc~;
#X obj 79 400 vline~;
#X msg 79 378 1 10 \, 0.7 1000 10 \, 0 1000 1010;
#X obj 314 464 *~;
#X obj 315 540 dac~;
#X obj 302 374 mtof;
#X obj 302 396 osc~;
#X obj 350 404 vline~;
#X msg 350 382 1 10 \, 0.7 1000 10 \, 0 1000 1010;
#X obj 584 465 *~;
#X obj 585 541 dac~;
#X obj 572 375 mtof;
#X obj 572 397 osc~;
#X obj 620 405 vline~;
#X msg 620 383 1 10 \, 0.7 1000 10 \, 0 1000 1010;
#X floatatom 302 299 5 0 0 0 - - -, f 5;
#X floatatom 481 301 5 0 0 0 - - -, f 5;
#X obj 863 472 *~;
#X obj 864 548 dac~;
#X obj 851 382 mtof;
#X obj 851 404 osc~;
#X obj 899 412 vline~;
#X msg 899 390 1 10 \, 0.7 1000 10 \, 0 1000 1010;
#X obj 667 276 + 12;
#X floatatom 667 298 5 0 0 0 - - -, f 5;
#X obj 324 124 inlet;
#X floatatom 516 147 5 0 0 0 - - -, f 5;
#X obj 418 130 + 5;
#X obj 302 277 + 4;
#X obj 447 66 r root;
#X obj 652 201 tabwrite arparp;
#X obj 652 174 tabwrite arparp;
#X obj 654 137 tabwrite arparp;
#X obj 654 93 tabwrite arparp;
#X floatatom 798 93 5 0 0 0 - - -, f 5;
#X obj 885 92 loadbang;
#X floatatom 800 130 5 0 0 0 - - -, f 5;
#X obj 887 129 loadbang;
#X floatatom 798 161 5 0 0 0 - - -, f 5;
#X obj 885 160 loadbang;
#X floatatom 799 189 5 0 0 0 - - -, f 5;
#X obj 886 188 loadbang;
#X msg 844 92 0;
#X msg 847 127 1;
#X msg 845 158 2;
#X msg 846 186 3;
#X connect 0 0 20 0;
#X connect 1 0 2 0;
#X connect 1 0 2 1;
#X connect 3 0 4 0;
#X connect 4 0 1 0;
#X connect 5 0 1 1;
#X connect 6 0 5 0;
#X connect 7 0 8 0;
#X connect 7 0 8 1;
#X connect 9 0 10 0;
#X connect 10 0 7 0;
#X connect 11 0 7 1;
#X connect 12 0 11 0;
#X connect 13 0 14 0;
#X connect 13 0 14 1;
#X connect 15 0 16 0;
#X connect 16 0 13 0;
#X connect 17 0 13 1;
#X connect 18 0 17 0;
#X connect 19 0 9 0;
#X connect 19 0 36 0;
#X connect 20 0 15 0;
#X connect 20 0 35 0;
#X connect 21 0 22 0;
#X connect 21 0 22 1;
#X connect 23 0 24 0;
#X connect 24 0 21 0;
#X connect 25 0 21 1;
#X connect 26 0 25 0;
#X connect 27 0 28 0;
#X connect 28 0 23 0;
#X connect 28 0 34 0;
#X connect 29 0 6 0;
#X connect 29 0 12 0;
#X connect 29 0 18 0;
#X connect 29 0 26 0;
#X connect 29 0 31 0;
#X connect 30 0 3 0;
#X connect 30 0 0 0;
#X connect 30 0 27 0;
#X connect 30 0 32 0;
#X connect 30 0 37 0;
#X connect 31 0 30 0;
#X connect 32 0 19 0;
#X connect 33 0 31 0;
#X connect 38 0 37 1;
#X connect 39 0 46 0;
#X connect 40 0 36 1;
#X connect 41 0 47 0;
#X connect 42 0 35 1;
#X connect 43 0 48 0;
#X connect 44 0 34 1;
#X connect 45 0 49 0;
#X connect 46 0 38 0;
#X connect 47 0 40 0;
#X connect 48 0 42 0;
#X connect 49 0 44 0;
#X restore 297 129 pd IV;
#N canvas 44 144 1236 634 V 0;
#X obj 481 279 + 7;
#X obj 43 460 *~;
#X obj 44 536 dac~;
#X obj 31 370 mtof;
#X obj 31 392 osc~;
#X obj 79 400 vline~;
#X msg 79 378 1 10 \, 0.7 1000 10 \, 0 1000 1010;
#X obj 314 464 *~;
#X obj 315 540 dac~;
#X obj 302 374 mtof;
#X obj 302 396 osc~;
#X obj 350 404 vline~;
#X msg 350 382 1 10 \, 0.7 1000 10 \, 0 1000 1010;
#X obj 584 465 *~;
#X obj 585 541 dac~;
#X obj 572 375 mtof;
#X obj 572 397 osc~;
#X obj 620 405 vline~;
#X msg 620 383 1 10 \, 0.7 1000 10 \, 0 1000 1010;
#X floatatom 302 299 5 0 0 0 - - -, f 5;
#X floatatom 481 301 5 0 0 0 - - -, f 5;
#X obj 863 472 *~;
#X obj 864 548 dac~;
#X obj 851 382 mtof;
#X obj 851 404 osc~;
#X obj 899 412 vline~;
#X msg 899 390 1 10 \, 0.7 1000 10 \, 0 1000 1010;
#X obj 667 276 + 12;
#X floatatom 667 298 5 0 0 0 - - -, f 5;
#X obj 324 124 inlet;
#X floatatom 516 147 5 0 0 0 - - -, f 5;
#X obj 417 88 r root;
#X obj 418 130 + 7;
#X obj 302 277 + 4;
#X obj 665 188 tabwrite arparp;
#X obj 665 161 tabwrite arparp;
#X obj 667 124 tabwrite arparp;
#X obj 667 80 tabwrite arparp;
#X floatatom 811 80 5 0 0 0 - - -, f 5;
#X obj 898 79 loadbang;
#X floatatom 813 117 5 0 0 0 - - -, f 5;
#X obj 900 116 loadbang;
#X floatatom 811 148 5 0 0 0 - - -, f 5;
#X obj 898 147 loadbang;
#X floatatom 812 176 5 0 0 0 - - -, f 5;
#X obj 899 175 loadbang;
#X msg 857 79 0;
#X msg 860 114 1;
#X msg 858 145 2;
#X msg 859 173 3;
#X connect 0 0 20 0;
#X connect 1 0 2 0;
#X connect 1 0 2 1;
#X connect 3 0 4 0;
#X connect 4 0 1 0;
#X connect 5 0 1 1;
#X connect 6 0 5 0;
#X connect 7 0 8 0;
#X connect 7 0 8 1;
#X connect 9 0 10 0;
#X connect 10 0 7 0;
#X connect 11 0 7 1;
#X connect 12 0 11 0;
#X connect 13 0 14 0;
#X connect 13 0 14 1;
#X connect 15 0 16 0;
#X connect 16 0 13 0;
#X connect 17 0 13 1;
#X connect 18 0 17 0;
#X connect 19 0 9 0;
#X connect 19 0 36 0;
#X connect 20 0 15 0;
#X connect 20 0 35 0;
#X connect 21 0 22 0;
#X connect 21 0 22 1;
#X connect 23 0 24 0;
#X connect 24 0 21 0;
#X connect 25 0 21 1;
#X connect 26 0 25 0;
#X connect 27 0 28 0;
#X connect 28 0 23 0;
#X connect 28 0 34 0;
#X connect 29 0 6 0;
#X connect 29 0 12 0;
#X connect 29 0 18 0;
#X connect 29 0 26 0;
#X connect 29 0 32 0;
#X connect 30 0 3 0;
#X connect 30 0 0 0;
#X connect 30 0 27 0;
#X connect 30 0 33 0;
#X connect 30 0 37 0;
#X connect 31 0 32 0;
#X connect 32 0 30 0;
#X connect 33 0 19 0;
#X connect 38 0 37 1;
#X connect 39 0 46 0;
#X connect 40 0 36 1;
#X connect 41 0 47 0;
#X connect 42 0 35 1;
#X connect 43 0 48 0;
#X connect 44 0 34 1;
#X connect 45 0 49 0;
#X connect 46 0 38 0;
#X connect 47 0 40 0;
#X connect 48 0 42 0;
#X connect 49 0 44 0;
#X restore 357 128 pd V;
#N canvas 4 54 1039 724 vi 0;
#X obj 481 279 + 7;
#X obj 43 460 *~;
#X obj 44 536 dac~;
#X obj 31 370 mtof;
#X obj 31 392 osc~;
#X obj 79 400 vline~;
#X msg 79 378 1 10 \, 0.7 1000 10 \, 0 1000 1010;
#X obj 314 464 *~;
#X obj 315 540 dac~;
#X obj 302 374 mtof;
#X obj 302 396 osc~;
#X obj 350 404 vline~;
#X msg 350 382 1 10 \, 0.7 1000 10 \, 0 1000 1010;
#X obj 584 465 *~;
#X obj 585 541 dac~;
#X obj 572 375 mtof;
#X obj 572 397 osc~;
#X obj 620 405 vline~;
#X msg 620 383 1 10 \, 0.7 1000 10 \, 0 1000 1010;
#X floatatom 302 299 5 0 0 0 - - -, f 5;
#X floatatom 481 301 5 0 0 0 - - -, f 5;
#X obj 863 472 *~;
#X obj 864 548 dac~;
#X obj 851 382 mtof;
#X obj 851 404 osc~;
#X obj 899 412 vline~;
#X msg 899 390 1 10 \, 0.7 1000 10 \, 0 1000 1010;
#X obj 667 276 + 12;
#X floatatom 667 298 5 0 0 0 - - -, f 5;
#X obj 324 124 inlet;
#X floatatom 516 147 5 0 0 0 - - -, f 5;
#X obj 417 88 r root;
#X obj 418 130 + 9;
#X obj 302 277 + 3;
#X obj 644 205 tabwrite arparp;
#X obj 644 178 tabwrite arparp;
#X obj 646 141 tabwrite arparp;
#X obj 646 97 tabwrite arparp;
#X floatatom 790 97 5 0 0 0 - - -, f 5;
#X obj 877 96 loadbang;
#X floatatom 792 134 5 0 0 0 - - -, f 5;
#X obj 879 133 loadbang;
#X floatatom 790 165 5 0 0 0 - - -, f 5;
#X obj 877 164 loadbang;
#X floatatom 791 193 5 0 0 0 - - -, f 5;
#X obj 878 192 loadbang;
#X msg 836 96 0;
#X msg 839 131 1;
#X msg 837 162 2;
#X msg 838 190 3;
#X connect 0 0 20 0;
#X connect 1 0 2 0;
#X connect 1 0 2 1;
#X connect 3 0 4 0;
#X connect 4 0 1 0;
#X connect 5 0 1 1;
#X connect 6 0 5 0;
#X connect 7 0 8 0;
#X connect 7 0 8 1;
#X connect 9 0 10 0;
#X connect 10 0 7 0;
#X connect 11 0 7 1;
#X connect 12 0 11 0;
#X connect 13 0 14 0;
#X connect 13 0 14 1;
#X connect 15 0 16 0;
#X connect 16 0 13 0;
#X connect 17 0 13 1;
#X connect 18 0 17 0;
#X connect 19 0 9 0;
#X connect 19 0 36 0;
#X connect 20 0 15 0;
#X connect 20 0 35 0;
#X connect 21 0 22 0;
#X connect 21 0 22 1;
#X connect 23 0 24 0;
#X connect 24 0 21 0;
#X connect 25 0 21 1;
#X connect 26 0 25 0;
#X connect 27 0 28 0;
#X connect 28 0 23 0;
#X connect 28 0 34 0;
#X connect 29 0 6 0;
#X connect 29 0 12 0;
#X connect 29 0 18 0;
#X connect 29 0 26 0;
#X connect 29 0 32 0;
#X connect 30 0 3 0;
#X connect 30 0 0 0;
#X connect 30 0 27 0;
#X connect 30 0 33 0;
#X connect 30 0 37 0;
#X connect 31 0 32 0;
#X connect 32 0 30 0;
#X connect 33 0 19 0;
#X connect 38 0 37 1;
#X connect 39 0 46 0;
#X connect 40 0 36 1;
#X connect 41 0 47 0;
#X connect 42 0 35 1;
#X connect 43 0 48 0;
#X connect 44 0 34 1;
#X connect 45 0 49 0;
#X connect 46 0 38 0;
#X connect 47 0 40 0;
#X connect 48 0 42 0;
#X connect 49 0 44 0;
#X restore 403 129 pd vi;
#X obj 205 88 select I ii iii IV V vi vii;
#N canvas 121 118 1159 660 vii 0;
#X obj 43 460 *~;
#X obj 44 536 dac~;
#X obj 31 370 mtof;
#X obj 31 392 osc~;
#X obj 79 400 vline~;
#X msg 79 378 1 10 \, 0.7 1000 10 \, 0 1000 1010;
#X obj 314 464 *~;
#X obj 315 540 dac~;
#X obj 302 374 mtof;
#X obj 302 396 osc~;
#X obj 350 404 vline~;
#X msg 350 382 1 10 \, 0.7 1000 10 \, 0 1000 1010;
#X obj 584 465 *~;
#X obj 585 541 dac~;
#X obj 572 375 mtof;
#X obj 572 397 osc~;
#X obj 620 405 vline~;
#X msg 620 383 1 10 \, 0.7 1000 10 \, 0 1000 1010;
#X floatatom 302 299 5 0 0 0 - - -, f 5;
#X floatatom 481 301 5 0 0 0 - - -, f 5;
#X obj 863 472 *~;
#X obj 864 548 dac~;
#X obj 851 382 mtof;
#X obj 851 404 osc~;
#X obj 899 412 vline~;
#X msg 899 390 1 10 \, 0.7 1000 10 \, 0 1000 1010;
#X obj 667 276 + 12;
#X floatatom 667 298 5 0 0 0 - - -, f 5;
#X obj 324 124 inlet;
#X floatatom 516 147 5 0 0 0 - - -, f 5;
#X obj 417 88 r root;
#X obj 418 130 + 11;
#X obj 302 277 + 3;
#X obj 481 279 + 6;
#X obj 727 193 tabwrite arparp;
#X obj 727 166 tabwrite arparp;
#X obj 729 129 tabwrite arparp;
#X obj 729 85 tabwrite arparp;
#X floatatom 873 85 5 0 0 0 - - -, f 5;
#X obj 960 84 loadbang;
#X floatatom 875 122 5 0 0 0 - - -, f 5;
#X obj 962 121 loadbang;
#X floatatom 873 153 5 0 0 0 - - -, f 5;
#X obj 960 152 loadbang;
#X floatatom 874 181 5 0 0 0 - - -, f 5;
#X obj 961 180 loadbang;
#X msg 919 84 0;
#X msg 922 119 1;
#X msg 920 150 2;
#X msg 921 178 3;
#X connect 0 0 1 0;
#X connect 0 0 1 1;
#X connect 2 0 3 0;
#X connect 3 0 0 0;
#X connect 4 0 0 1;
#X connect 5 0 4 0;
#X connect 6 0 7 0;
#X connect 6 0 7 1;
#X connect 8 0 9 0;
#X connect 9 0 6 0;
#X connect 10 0 6 1;
#X connect 11 0 10 0;
#X connect 12 0 13 0;
#X connect 12 0 13 1;
#X connect 14 0 15 0;
#X connect 15 0 12 0;
#X connect 16 0 12 1;
#X connect 17 0 16 0;
#X connect 18 0 8 0;
#X connect 18 0 36 0;
#X connect 19 0 14 0;
#X connect 19 0 35 0;
#X connect 20 0 21 0;
#X connect 20 0 21 1;
#X connect 22 0 23 0;
#X connect 23 0 20 0;
#X connect 24 0 20 1;
#X connect 25 0 24 0;
#X connect 26 0 27 0;
#X connect 27 0 22 0;
#X connect 27 0 34 0;
#X connect 28 0 5 0;
#X connect 28 0 11 0;
#X connect 28 0 17 0;
#X connect 28 0 25 0;
#X connect 28 0 31 0;
#X connect 29 0 2 0;
#X connect 29 0 26 0;
#X connect 29 0 32 0;
#X connect 29 0 33 0;
#X connect 29 0 37 0;
#X connect 30 0 31 0;
#X connect 31 0 29 0;
#X connect 32 0 18 0;
#X connect 33 0 19 0;
#X connect 38 0 37 1;
#X connect 39 0 46 0;
#X connect 40 0 36 1;
#X connect 41 0 47 0;
#X connect 42 0 35 1;
#X connect 43 0 48 0;
#X connect 44 0 34 1;
#X connect 45 0 49 0;
#X connect 46 0 38 0;
#X connect 47 0 40 0;
#X connect 48 0 42 0;
#X connect 49 0 44 0;
#X restore 454 128 pd vii;
#X obj 205 45 inlet;
#X connect 6 0 0 0;
#X connect 6 1 1 0;
#X connect 6 2 2 0;
#X connect 6 3 3 0;
#X connect 6 4 4 0;
#X connect 6 5 5 0;
#X connect 6 6 7 0;
#X connect 8 0 6 0;
#X restore 505 304 pd select;
#X msg 219 222 48;
#X obj 674 503 tgl 15 0 empty empty empty 17 7 0 10 -262144 -1 -1 1
1;
#N canvas 71 119 1014 740 guts 0;
#X obj 564 617 osc~;
#X obj 579 695 dac~;
#X obj 549 257 float;
#X obj 642 288 + 1;
#X floatatom 543 289 5 0 0 0 - - -, f 5;
#X obj 539 318 mod 4;
#X floatatom 539 343 5 0 0 0 - - -, f 5;
#X obj 538 365 hradio 15 1 0 4 empty empty empty 0 -8 0 10 -262144
-1 -1 0;
#X obj 535 386 select 0 1 2 3;
#X obj 472 551 float;
#X obj 519 550 float;
#X obj 565 550 float;
#X obj 621 548 float;
#X obj 544 587 mtof;
#X obj 718 287 select 0 1 2 3;
#X obj 721 238 bng 15 250 50 0 empty empty empty 17 7 0 10 -262144
-1 -1;
#X obj 720 263 random 4;
#X obj 679 336 send B1;
#X obj 738 337 send B2;
#X obj 797 337 send B3;
#X obj 857 337 send B4;
#X obj 615 524 r N4;
#X obj 574 522 r N3;
#X obj 527 522 r N2;
#X obj 475 522 r N1;
#X obj 696 312 bng 15 250 50 0 empty empty empty 17 7 0 10 -262144
-1 -1;
#X obj 748 316 bng 15 250 50 0 empty empty empty 17 7 0 10 -262144
-1 -1;
#X obj 797 311 bng 15 250 50 0 empty empty empty 17 7 0 10 -262144
-1 -1;
#X obj 851 312 bng 15 250 50 0 empty empty empty 17 7 0 10 -262144
-1 -1;
#X obj 605 128 r met;
#X obj 684 173 r jgo;
#X obj 541 225 metro 500;
#X obj 743 149 r met;
#X obj 718 201 metro 500;
#X obj 745 176 * 4;
#X floatatom 663 446 5 0 0 0 - - -, f 5;
#X floatatom 474 447 5 0 0 0 - - -, f 5;
#X floatatom 544 449 5 0 0 0 - - -, f 5;
#X floatatom 603 448 5 0 0 0 - - -, f 5;
#X obj 411 482 tabread arparp;
#X obj 519 483 tabread arparp;
#X obj 736 483 tabread arparp;
#X obj 628 483 tabread arparp;
#X msg 611 415 0;
#X msg 651 415 1;
#X msg 694 415 2;
#X msg 737 416 4;
#X obj 719 366 loadbang;
#X obj 147 138 bng 15 250 50 0 empty empty empty 17 7 0 10 -262144
-1 -1;
#X obj 147 178 + 1, f 4;
#X obj 95 180 i 0;
#X msg 70 132 0;
#X floatatom 105 439 5 0 0 0 - - -, f 5;
#X obj 118 643 dac~;
#X floatatom 260 260 5 0 0 0 - - -, f 5;
#X obj 10 378 tabread a_min_pent;
#X floatatom 118 334 5 0 0 0 - - -, f 5;
#X obj 55 647 dac~;
#X obj 189 502 tabread a_min_pent;
#X obj 220 644 dac~;
#X floatatom 189 527 5 0 0 0 - - -, f 5;
#X obj 189 546 mtof;
#X floatatom 189 568 5 0 0 0 - - -, f 5;
#X obj 35 500 phasor~;
#X obj 44 464 / 2;
#X obj 84 272 tabread sequencer;
#X obj 345 408 tabwrite sequencer;
#X obj 142 209 - 1;
#X msg 257 184 set a_min_pent;
#X obj 255 93 loadbang;
#X obj 259 59 r met;
#X obj 88 57 r mgo;
#X obj 142 93 metro 350;
#X msg 268 116 \; a_min_pent 0 45 48 50 52 55 57 60 62 67 69 72;
#X obj 282 161 table a_min_pent 11;
#X obj 215 291 random 5;
#X obj 119 308 i;
#X obj 96 217 % 8;
#X floatatom 39 401 5 0 0 0 - - -, f 5;
#X obj 200 219 % 8;
#X obj 208 317 - 2;
#X floatatom 208 339 5 0 0 0 - - -, f 5;
#X obj 169 354 +;
#X floatatom 169 376 5 0 0 0 - - -, f 5;
#X floatatom 214 412 5 0 0 0 - - -, f 5;
#X obj 214 390 mod 11;
#X obj 65 425 mtof;
#X obj 189 475 +;
#X obj 258 418 random 5;
#X obj 258 440 - 2;
#X floatatom 258 462 5 0 0 0 - - -, f 5;
#X obj 113 485 phasor~;
#X obj 212 591 phasor~;
#X obj 333 565 vsl 15 128 0 0.15 0 0 empty empty empty 0 -9 0 10 -262144
-1 -1 0 1;
#X obj 713 554 vsl 15 128 0 2 0 0 empty empty empty 0 -9 0 10 -262144
-1 -1 0 1;
#X obj 566 646 *~ 1;
#X obj 218 615 *~ 0.08;
#X obj 118 566 *~ 0.03;
#X obj 42 560 *~ 0.03;
#X text 751 609 <---control volume;
#X text 361 609 <---control volume;
#X text 382 623 (for sequencer);
#X text 772 623 for arpeggiator;
#X connect 0 0 95 0;
#X connect 2 0 3 0;
#X connect 2 0 4 0;
#X connect 3 0 2 1;
#X connect 4 0 5 0;
#X connect 5 0 6 0;
#X connect 6 0 7 0;
#X connect 7 0 8 0;
#X connect 8 0 36 0;
#X connect 8 1 37 0;
#X connect 8 2 38 0;
#X connect 8 3 35 0;
#X connect 9 0 13 0;
#X connect 10 0 13 0;
#X connect 11 0 13 0;
#X connect 12 0 13 0;
#X connect 13 0 0 0;
#X connect 14 0 25 0;
#X connect 14 1 26 0;
#X connect 14 2 27 0;
#X connect 14 3 28 0;
#X connect 15 0 16 0;
#X connect 16 0 14 0;
#X connect 21 0 12 1;
#X connect 22 0 11 1;
#X connect 23 0 10 1;
#X connect 24 0 9 1;
#X connect 25 0 17 0;
#X connect 26 0 18 0;
#X connect 27 0 19 0;
#X connect 28 0 20 0;
#X connect 29 0 31 1;
#X connect 30 0 31 0;
#X connect 30 0 33 0;
#X connect 31 0 2 0;
#X connect 32 0 34 0;
#X connect 33 0 15 0;
#X connect 34 0 33 1;
#X connect 35 0 41 0;
#X connect 36 0 39 0;
#X connect 37 0 40 0;
#X connect 38 0 42 0;
#X connect 39 0 9 0;
#X connect 40 0 10 0;
#X connect 41 0 12 0;
#X connect 42 0 11 0;
#X connect 43 0 36 0;
#X connect 44 0 37 0;
#X connect 45 0 38 0;
#X connect 46 0 35 0;
#X connect 47 0 46 0;
#X connect 47 0 45 0;
#X connect 47 0 44 0;
#X connect 47 0 43 0;
#X connect 48 0 49 0;
#X connect 48 0 50 0;
#X connect 48 0 75 0;
#X connect 48 0 88 0;
#X connect 49 0 50 1;
#X connect 50 0 49 0;
#X connect 50 0 77 0;
#X connect 50 0 67 0;
#X connect 51 0 50 0;
#X connect 52 0 64 0;
#X connect 52 0 91 0;
#X connect 54 0 66 1;
#X connect 55 0 78 0;
#X connect 56 0 82 0;
#X connect 56 0 87 0;
#X connect 58 0 60 0;
#X connect 60 0 61 0;
#X connect 61 0 62 0;
#X connect 62 0 92 0;
#X connect 63 0 98 0;
#X connect 64 0 63 0;
#X connect 65 0 76 0;
#X connect 67 0 79 0;
#X connect 69 0 68 0;
#X connect 69 0 73 0;
#X connect 70 0 72 1;
#X connect 71 0 72 0;
#X connect 72 0 48 0;
#X connect 75 0 80 0;
#X connect 76 0 56 0;
#X connect 76 0 55 0;
#X connect 77 0 65 0;
#X connect 78 0 86 0;
#X connect 79 0 54 0;
#X connect 80 0 81 0;
#X connect 81 0 82 1;
#X connect 82 0 83 0;
#X connect 83 0 85 0;
#X connect 85 0 66 0;
#X connect 85 0 84 0;
#X connect 86 0 52 0;
#X connect 87 0 58 0;
#X connect 88 0 89 0;
#X connect 89 0 90 0;
#X connect 90 0 87 1;
#X connect 91 0 97 0;
#X connect 92 0 96 0;
#X connect 93 0 96 1;
#X connect 93 0 97 1;
#X connect 93 0 98 1;
#X connect 94 0 95 1;
#X connect 95 0 1 0;
#X connect 95 0 1 1;
#X connect 96 0 59 0;
#X connect 96 0 59 1;
#X connect 97 0 53 0;
#X connect 97 0 53 1;
#X connect 98 0 57 0;
#X connect 98 0 57 1;
#X restore 466 407 pd guts;
#X obj 838 248 vsl 15 128 500 40 0 0 empty empty empty 0 -9 0 10 -262144
-1 -1 6902 1;
#X obj 838 399 s met;
#X obj 674 527 s mgo;
#X obj 715 502 tgl 15 0 empty empty empty 17 7 0 10 -262144 -1 -1 1
1;
#X obj 716 526 s jgo;
#X obj 694 471 tgl 15 0 empty empty empty 17 7 0 10 -262144 -1 -1 1
1;
#N canvas 181 55 1095 703 pentatonic 0;
#X obj 294 73 r root;
#X obj 294 104 - 4;
#X obj 295 151 tabwrite a_min_pent;
#X floatatom 295 129 5 0 0 0 - - -, f 5;
#X obj 294 178 tabwrite a_min_pent;
#X floatatom 446 180 5 0 0 0 - - -, f 5;
#X obj 533 179 loadbang;
#X obj 328 105 + 3;
#X floatatom 346 130 5 0 0 0 - - -, f 5;
#X obj 294 209 tabwrite a_min_pent;
#X floatatom 444 211 5 0 0 0 - - -, f 5;
#X obj 531 210 loadbang;
#X floatatom 398 131 5 0 0 0 - - -, f 5;
#X obj 365 104 + 2;
#X obj 295 237 tabwrite a_min_pent;
#X floatatom 445 239 5 0 0 0 - - -, f 5;
#X obj 532 238 loadbang;
#X floatatom 441 132 5 0 0 0 - - -, f 5;
#X obj 406 104 + 2;
#X obj 294 265 tabwrite a_min_pent;
#X floatatom 446 265 5 0 0 0 - - -, f 5;
#X obj 533 264 loadbang;
#X floatatom 485 132 5 0 0 0 - - -, f 5;
#X obj 293 292 tabwrite a_min_pent;
#X floatatom 443 294 5 0 0 0 - - -, f 5;
#X obj 530 293 loadbang;
#X floatatom 530 131 5 0 0 0 - - -, f 5;
#X obj 487 103 + 2;
#X obj 290 321 tabwrite a_min_pent;
#X floatatom 440 323 5 0 0 0 - - -, f 5;
#X obj 527 322 loadbang;
#X floatatom 576 131 5 0 0 0 - - -, f 5;
#X obj 290 348 tabwrite a_min_pent;
#X floatatom 440 350 5 0 0 0 - - -, f 5;
#X obj 527 349 loadbang;
#X floatatom 624 131 5 0 0 0 - - -, f 5;
#X obj 291 379 tabwrite a_min_pent;
#X floatatom 441 381 5 0 0 0 - - -, f 5;
#X obj 528 380 loadbang;
#X floatatom 669 130 5 0 0 0 - - -, f 5;
#X obj 290 410 tabwrite a_min_pent;
#X floatatom 440 412 5 0 0 0 - - -, f 5;
#X obj 527 411 loadbang;
#X floatatom 716 129 5 0 0 0 - - -, f 5;
#X obj 653 103 + 2;
#X obj 290 438 tabwrite a_min_pent;
#X floatatom 440 440 5 0 0 0 - - -, f 5;
#X obj 527 439 loadbang;
#X floatatom 763 129 5 0 0 0 - - -, f 5;
#X obj 446 103 + 3;
#X obj 528 103 + 3;
#X obj 567 103 + 2;
#X obj 610 104 + 5;
#X obj 688 102 + 3;
#X msg 493 177 1;
#X msg 491 208 2;
#X msg 492 236 3;
#X msg 491 261 4;
#X msg 490 291 5;
#X msg 487 320 6;
#X msg 487 347 7;
#X msg 488 378 8;
#X msg 487 409 9;
#X msg 487 437 10;
#X connect 0 0 1 0;
#X connect 1 0 3 0;
#X connect 3 0 2 0;
#X connect 5 0 4 1;
#X connect 6 0 54 0;
#X connect 7 0 8 0;
#X connect 7 0 13 0;
#X connect 8 0 4 0;
#X connect 10 0 9 1;
#X connect 11 0 55 0;
#X connect 12 0 9 0;
#X connect 13 0 12 0;
#X connect 13 0 18 0;
#X connect 15 0 14 1;
#X connect 16 0 56 0;
#X connect 17 0 14 0;
#X connect 18 0 17 0;
#X connect 18 0 49 0;
#X connect 20 0 19 1;
#X connect 21 0 57 0;
#X connect 22 0 19 0;
#X connect 24 0 23 1;
#X connect 25 0 58 0;
#X connect 26 0 23 0;
#X connect 27 0 26 0;
#X connect 27 0 50 0;
#X connect 29 0 28 1;
#X connect 30 0 59 0;
#X connect 31 0 28 0;
#X connect 33 0 32 1;
#X connect 34 0 60 0;
#X connect 35 0 32 0;
#X connect 37 0 36 1;
#X connect 38 0 61 0;
#X connect 39 0 36 0;
#X connect 41 0 40 1;
#X connect 42 0 62 0;
#X connect 43 0 40 0;
#X connect 44 0 43 0;
#X connect 44 0 53 0;
#X connect 46 0 45 1;
#X connect 47 0 63 0;
#X connect 48 0 45 0;
#X connect 49 0 22 0;
#X connect 49 0 27 0;
#X connect 50 0 31 0;
#X connect 50 0 51 0;
#X connect 51 0 35 0;
#X connect 51 0 52 0;
#X connect 52 0 39 0;
#X connect 52 0 44 0;
#X connect 53 0 48 0;
#X connect 54 0 5 0;
#X connect 55 0 10 0;
#X connect 56 0 15 0;
#X connect 57 0 20 0;
#X connect 58 0 24 0;
#X connect 59 0 29 0;
#X connect 60 0 33 0;
#X connect 61 0 37 0;
#X connect 62 0 41 0;
#X connect 63 0 46 0;
#X restore 392 304 pd pentatonic;
#X obj 219 305 int;
#X obj 708 309 table arparp 4;
#X obj 644 309 loadbang;
#X msg 644 342 \; arparp 48 52 55 60;
#N canvas 0 50 450 250 (subpatch) 0;
#X array sequencer 8 float 3;
#A 0 10 5 9 10 6 3 8 5;
#X coords 0 11 8 0 400 280 2 0 1;
#X restore 218 471 graph;
#X obj 219 197 loadbang;
#X obj 838 198 loadbang;
#X msg 838 220 250;
#X text 858 299 <---Slide to change tempo;
#X text 49 284 slide to change key--->;
#X text 451 367 (subsystems!);
#X text 487 382 |;
#X text 487 390 v;
#X text 558 333 |;
#X text 558 329 ^;
#X text 434 330 |;
#X text 434 326 ^;
#X text 675 663 draw with your cursor to program the sequencer;
#X text 643 663 <---;
#X text 778 477 check the boxes to start one;
#X text 799 491 or both of the subpatches;
#X text 737 494 <---;
#X text 737 469 <---;
#X text 403 139 click the chord symbols to play chords!;
#X text 377 348 click these to explore subpatches;
#X text 327 12 Hi David! Welcome to MEGAPATCH! We encourage you to
have fun \, poke around \, edit whatever you wish...it's all ones and
zeros \, after all. We have added notes where it might be helpful.
;
#X text 327 78 ***Don't forget to check "DSP" in the other PD window
before you start!!;
#X obj 1281 244 unpack;
#X floatatom 1280 267 0 0 0 0 - - -;
#X floatatom 1315 266 0 0 0 0 - - -;
#X obj 1350 497 loadbang;
#X text 1279 282 raw pitch;
#X text 1270 296 and amplitude;
#X msg 1290 145 auto 1;
#X msg 1278 185 auto 0;
#X obj 1260 90 adc~ 1;
#X obj 1248 461 int;
#X obj 1275 561 makenote;
#X floatatom 1248 483 5 0 0 0 - - -, f 5;
#X floatatom 1248 414 5 0 0 0 - - -, f 5;
#X obj 1297 452 int;
#X floatatom 1297 405 5 0 0 0 - - -, f 5;
#X obj 1335 435 bng 15 250 50 0 empty empty empty 17 7 0 10 -262144
-1 -1;
#X floatatom 1362 381 5 0 0 0 - - -, f 5;
#X obj 1362 398 select 1;
#X obj 1362 419 bng 15 250 50 0 empty empty empty 17 7 0 10 -262144
-1 -1;
#X obj 1275 583 noteout 1;
#X obj 1289 121 loadbang;
#X obj 1247 438 + 0.65;
#X obj 1362 360 > 20;
#X obj 1320 534 f;
#X obj 1349 534 metro 20;
#X obj 1350 517 tgl 15 0 empty empty empty 17 7 0 10 -262144 -1 -1
1 1;
#X obj 1335 455 timer;
#X floatatom 1335 477 0 0 0 0 - - -;
#X obj 1248 523 t f b;
#X text 1336 323 comment;
#X obj 1260 213 fiddle~ 1024;
#X obj 1297 427 + 20;
#X floatatom 1172 509 5 0 0 0 - - -, f 5;
#X obj 1172 487 - 12;
#X connect 0 0 9 0;
#X connect 1 0 9 0;
#X connect 2 0 9 0;
#X connect 3 0 9 0;
#X connect 5 0 9 0;
#X connect 6 0 9 0;
#X connect 7 0 9 0;
#X connect 8 0 20 0;
#X connect 10 0 8 0;
#X connect 11 0 15 0;
#X connect 13 0 14 0;
#X connect 16 0 17 0;
#X connect 18 0 11 0;
#X connect 18 0 16 0;
#X connect 22 0 23 0;
#X connect 25 0 10 0;
#X connect 26 0 27 0;
#X connect 27 0 13 0;
#X connect 47 0 48 0;
#X connect 47 1 49 0;
#X connect 49 0 61 0;
#X connect 49 0 69 0;
#X connect 50 0 72 0;
#X connect 53 0 77 0;
#X connect 54 0 77 0;
#X connect 55 0 77 0;
#X connect 56 0 58 0;
#X connect 57 0 66 0;
#X connect 57 1 66 1;
#X connect 58 0 75 0;
#X connect 58 0 80 0;
#X connect 59 0 68 0;
#X connect 60 0 57 1;
#X connect 61 0 78 0;
#X connect 62 0 73 0;
#X connect 63 0 64 0;
#X connect 64 0 65 0;
#X connect 65 0 73 1;
#X connect 67 0 53 0;
#X connect 68 0 56 0;
#X connect 69 0 63 0;
#X connect 70 0 57 2;
#X connect 71 0 70 0;
#X connect 72 0 71 0;
#X connect 73 0 74 0;
#X connect 74 0 70 1;
#X connect 75 0 57 0;
#X connect 75 1 62 0;
#X connect 77 0 59 0;
#X connect 77 2 47 0;
#X connect 78 0 60 0;
#X connect 79 0 4 0;
#X connect 80 0 79 0;
